<svg width="28" height="22" viewBox="0 0 28 22" fill="none" xmlns="http://www.w3.org/2000/svg">
<path d="M25.208 8.33746H20.3152C20.8381 9.56847 20.6086 11.0499 19.6147 12.0534L14 17.7221V19.6533C14 20.7561 14.8855 21.6502 15.9779 21.6502H25.208C26.3004 21.6502 27.1859 20.7561 27.1859 19.6533V10.3344C27.1859 9.23149 26.3004 8.33746 25.208 8.33746ZM20.593 15.9923C20.047 15.9923 19.604 15.545 19.604 14.9938C19.604 14.4422 20.047 13.9954 20.593 13.9954C21.1389 13.9954 21.5819 14.4422 21.5819 14.9938C21.5819 15.545 21.1389 15.9923 20.593 15.9923ZM18.6822 8.22513L11.4741 0.947662C10.6846 0.150564 9.4043 0.150564 8.61479 0.947662L1.40622 8.22513C0.61671 9.02223 0.61671 10.3148 1.40622 11.1119L8.61438 18.3898C9.40389 19.1869 10.6842 19.1869 11.4737 18.3898L18.6822 11.1123C19.4717 10.3148 19.4717 9.02223 18.6822 8.22513ZM4.76986 10.6672C4.22388 10.6672 3.78092 10.22 3.78092 9.66873C3.78092 9.11708 4.22388 8.67028 4.76986 8.67028C5.31584 8.67028 5.7588 9.11708 5.7588 9.66873C5.7588 10.22 5.31584 10.6672 4.76986 10.6672ZM10.0442 15.9923C9.49825 15.9923 9.05528 15.545 9.05528 14.9938C9.05528 14.4422 9.49825 13.9954 10.0442 13.9954C10.5902 13.9954 11.0332 14.4422 11.0332 14.9938C11.0332 15.545 10.5902 15.9923 10.0442 15.9923ZM10.0442 10.6672C9.49825 10.6672 9.05528 10.22 9.05528 9.66873C9.05528 9.11708 9.49825 8.67028 10.0442 8.67028C10.5902 8.67028 11.0332 9.11708 11.0332 9.66873C11.0332 10.22 10.5902 10.6672 10.0442 10.6672ZM10.0442 5.3421C9.49825 5.3421 9.05528 4.89488 9.05528 4.34365C9.05528 3.792 9.49825 3.3452 10.0442 3.3452C10.5902 3.3452 11.0332 3.792 11.0332 4.34365C11.0332 4.89488 10.5902 5.3421 10.0442 5.3421ZM15.3186 10.6672C14.7726 10.6672 14.3296 10.22 14.3296 9.66873C14.3296 9.11708 14.7726 8.67028 15.3186 8.67028C15.8646 8.67028 16.3075 9.11708 16.3075 9.66873C16.3075 10.22 15.8646 10.6672 15.3186 10.6672Z" fill="#222222"/>
</svg>
