<svg width="13" height="17" viewBox="0 0 13 17" fill="#222222" xmlns="http://www.w3.org/2000/svg">
<path fill-rule="evenodd" clip-rule="evenodd" d="M6.50025 0.968582C3.23455 0.968582 0.57785 3.62478 0.57785 6.89048C0.57785 9.91094 2.5861 13.1814 4.05289 15.5701C4.57929 16.4275 5.49435 16.9384 6.50075 16.9384C7.50715 16.9384 8.42115 16.4267 8.94755 15.5702L8.94869 15.5683C10.4149 13.1808 12.4222 9.9122 12.4222 6.89048C12.4221 3.62478 9.76535 0.968582 6.50025 0.968582ZM3.87965 6.89048C3.87965 5.44619 5.05545 4.27039 6.50025 4.27039C7.94505 4.27039 9.12085 5.44619 9.12085 6.89048C9.12085 8.33578 7.94505 9.51158 6.50025 9.51158C5.05545 9.51158 3.87965 8.33578 3.87965 6.89048Z" fill="#222222"/>
</svg>
